<svg xmlns="http://www.w3.org/2000/svg" width="32" height="32" id="gmail">
  <path fill="#fff" d="M6 7.497h20c.831 0 1.5.669 1.5 1.5v14c0 .83-.669 1.5-1.5 1.5H6c-.831 0-1.5-.67-1.5-1.5v-14c0-.831.669-1.5 1.5-1.5z"></path>
  <path fill="#d50707" d="M6 7.496c-.832 0-1.5.669-1.5 1.5v14c0 .83.668 1.5 1.5 1.5h1.5v-13.5l8.5 7 8.501-7v13.5h1.498c.831 0 1.5-.67 1.5-1.5v-14c0-.831-.669-1.5-1.5-1.5h-1.498l-8.502 7-8.5-7H6z"></path>
  <path d="M6 1027.36c-1.1 0-2 .9-2 2v14c0 1.099.9 2 2 2h20c1.1 0 2-.901 2-2v-14c0-1.1-.9-2-2-2H6zm0 1h20c.563 0 1 .437 1 1v14c0 .562-.437 1-1 1H6c-.563 0-1-.438-1-1v-14c0-.563.437-1 1-1z" color="#000" font-family="sans-serif" font-weight="400" overflow="visible" style="line-height:normal;text-indent:0;text-align:start;text-decoration-line:none;text-decoration-style:solid;text-decoration-color:#000;text-transform:none;block-progression:tb;white-space:normal;isolation:auto;mix-blend-mode:normal;solid-color:#000;solid-opacity:1" transform="translate(0 -1020.362)"></path>
  <path d="M7.5 1027.36a.5.5 0 0 0-.318.884l8.5 7a.5.5 0 0 0 .636 0l8.5-7a.5.5 0 0 0-.318-.885h-17zm1.395 1h14.21L16 1034.21l-7.105-5.85Z" color="#000" font-family="sans-serif" font-weight="400" overflow="visible" style="line-height:normal;text-indent:0;text-align:start;text-decoration-line:none;text-decoration-style:solid;text-decoration-color:#000;text-transform:none;block-progression:tb;white-space:normal;isolation:auto;mix-blend-mode:normal;solid-color:#000;solid-opacity:1" transform="translate(0 -1020.362)"></path>
  <path d="M7.494 1030.86a.5.5 0 0 0-.494.5v13.5a.5.5 0 1 0 1 0v-12.442l7.682 6.326a.5.5 0 0 0 .636 0l7.682-6.326v12.441a.5.5 0 1 0 1 0v-13.5a.5.5 0 0 0-.818-.386L16 1037.71l-8.182-6.738a.5.5 0 0 0-.324-.114z" color="#000" font-family="sans-serif" font-weight="400" overflow="visible" style="line-height:normal;text-indent:0;text-align:start;text-decoration-line:none;text-decoration-style:solid;text-decoration-color:#000;text-transform:none;block-progression:tb;white-space:normal;isolation:auto;mix-blend-mode:normal;solid-color:#000;solid-opacity:1" transform="translate(0 -1020.362)"></path>
</svg>
